<svg width="52" height="52" viewBox="0 0 52 52" fill="none" xmlns="http://www.w3.org/2000/svg">
<g clip-path="url(#clip0_129_1653)">
<path d="M26 0C19.1044 0 12.4912 2.73928 7.61522 7.61522C2.73928 12.4912 0 19.1044 0 26C0 32.8956 2.73928 39.5088 7.61522 44.3848C12.4912 49.2607 19.1044 52 26 52C32.8956 52 39.5088 49.2607 44.3848 44.3848C49.2607 39.5088 52 32.8956 52 26C52 19.1044 49.2607 12.4912 44.3848 7.61522C39.5088 2.73928 32.8956 0 26 0Z" fill="#282528"/>
<path d="M16 19.5L22.913 23.417C25.4616 24.861 26.5384 24.861 29.087 23.417L36 19.5" stroke="white" stroke-width="1.5" stroke-linejoin="round"/>
<path d="M35.9953 24.0284C35.9299 20.9611 35.8972 19.4275 34.7655 18.2914C33.6337 17.1553 32.0586 17.1157 28.9083 17.0366C26.9668 16.9878 25.0443 16.9878 23.1028 17.0366C19.9525 17.1157 18.3774 17.1553 17.2456 18.2914C16.1139 19.4275 16.0812 20.9611 16.0158 24.0284C15.9947 25.0147 15.9947 25.9951 16.0158 26.9814C16.0812 30.0487 16.1139 31.5823 17.2457 32.7184C18.3774 33.8545 19.9525 33.8941 23.1028 33.9732C23.571 33.985 24.0382 33.9939 24.5047 34" stroke="white" stroke-width="1.5" stroke-linecap="round" stroke-linejoin="round"/>
<path d="M34.8522 27.4391L35.5446 28.1315C36.1304 28.7172 36.1304 29.667 35.5446 30.2528L31.9172 33.9484C31.6319 34.2338 31.2669 34.4262 30.8702 34.5002L28.622 34.9883C28.2671 35.0653 27.951 34.7502 28.027 34.395L28.5056 32.1597C28.5796 31.763 28.772 31.398 29.0574 31.1126L32.7309 27.4391C33.3167 26.8533 34.2665 26.8533 34.8522 27.4391Z" stroke="white" stroke-width="1.5" stroke-linecap="round" stroke-linejoin="round"/>
</g>
<defs>
<clipPath id="clip0_129_1653">
<rect width="52" height="52" fill="white"/>
</clipPath>
</defs>
</svg>
