<svg width="52" height="52" viewBox="0 0 52 52" fill="none" xmlns="http://www.w3.org/2000/svg">
<g clip-path="url(#clip0_129_1638)">
<path d="M26 0C19.1044 0 12.4912 2.73928 7.61522 7.61522C2.73928 12.4912 0 19.1044 0 26C0 32.8956 2.73928 39.5088 7.61522 44.3848C12.4912 49.2607 19.1044 52 26 52C32.8956 52 39.5088 49.2607 44.3848 44.3848C49.2607 39.5088 52 32.8956 52 26C52 19.1044 49.2607 12.4912 44.3848 7.61522C39.5088 2.73928 32.8956 0 26 0Z" fill="#282528"/>
<path d="M29 36V32C29.1392 30.7473 28.78 29.4901 28 28.5C31 28.5 34 26.5 34 23C34.08 21.75 33.73 20.52 33 19.5C33.28 18.35 33.28 17.15 33 16C33 16 32 16 30 17.5C27.36 17 24.64 17 22 17.5C20 16 19 16 19 16C18.7 17.15 18.7 18.35 19 19.5C18.2719 20.5159 17.9185 21.7528 18 23C18 26.5 21 28.5 24 28.5C23.61 28.99 23.32 29.55 23.15 30.15C22.98 30.75 22.93 31.38 23 32V36" stroke="white" stroke-width="1.5" stroke-linecap="round" stroke-linejoin="round"/>
<path d="M23 32C18.49 34 18 30 16 30" stroke="white" stroke-width="1.5" stroke-linecap="round" stroke-linejoin="round"/>
</g>
<defs>
<clipPath id="clip0_129_1638">
<rect width="52" height="52" fill="white"/>
</clipPath>
</defs>
</svg>
