<svg width="52" height="52" viewBox="0 0 52 52" fill="none" xmlns="http://www.w3.org/2000/svg">
<g clip-path="url(#clip0_129_1633)">
<path d="M26 0C19.1044 0 12.4912 2.73928 7.61522 7.61522C2.73928 12.4912 0 19.1044 0 26C0 32.8956 2.73928 39.5088 7.61522 44.3848C12.4912 49.2607 19.1044 52 26 52C32.8956 52 39.5088 49.2607 44.3848 44.3848C49.2607 39.5088 52 32.8956 52 26C52 19.1044 49.2607 12.4912 44.3848 7.61522C39.5088 2.73928 32.8956 0 26 0Z" fill="#2A69B3"/>
<path d="M16 21.7143H19.8095V36H16V21.7143ZM17.8933 19.8095H17.8724C16.7352 19.8095 16 18.9619 16 17.9038C16 16.8229 16.7581 16 17.9152 16C19.0743 16 19.7876 16.8229 19.8095 17.9038C19.8095 18.9619 19.0743 19.8095 17.8933 19.8095ZM36 26.9524C36 24.059 33.6552 21.7143 30.7619 21.7143C28.9886 21.7143 27.4238 22.5981 26.4762 23.9467V21.7143H22.6667V36H26.4762V28.381C26.4762 26.8029 27.7552 25.5238 29.3333 25.5238C30.9114 25.5238 32.1905 26.8029 32.1905 28.381V36H36C36 36 36 27.3533 36 26.9524Z" fill="white"/>
</g>
<defs>
<clipPath id="clip0_129_1633">
<rect width="52" height="52" fill="white"/>
</clipPath>
</defs>
</svg>
