<svg width="52" height="52" viewBox="0 0 52 52" fill="none" xmlns="http://www.w3.org/2000/svg">
<g clip-path="url(#clip0_129_1661)">
<path d="M26 0C19.1044 0 12.4912 2.73928 7.61522 7.61522C2.73928 12.4912 0 19.1044 0 26C0 32.8956 2.73928 39.5088 7.61522 44.3848C12.4912 49.2607 19.1044 52 26 52C32.8956 52 39.5088 49.2607 44.3848 44.3848C49.2607 39.5088 52 32.8956 52 26C52 19.1044 49.2607 12.4912 44.3848 7.61522C39.5088 2.73928 32.8956 0 26 0Z" fill="#282528"/>
<path d="M22 21H30" stroke="white" stroke-width="1.5" stroke-linecap="round" stroke-linejoin="round"/>
<path d="M22 25H26" stroke="white" stroke-width="1.5" stroke-linecap="round" stroke-linejoin="round"/>
<path d="M27 35.5V35C27 32.1716 27 30.7574 27.8787 29.8787C28.7574 29 30.1716 29 33 29H33.5M34 27.3431V24C34 20.2288 34 18.3432 32.8284 17.1716C31.6569 16 29.7712 16 26 16C22.2288 16 20.3431 16 19.1716 17.1716C18 18.3431 18 20.2288 18 24V28.5442C18 31.7892 18 33.4117 18.8861 34.5107C19.0651 34.7327 19.2673 34.9349 19.4893 35.1139C20.5883 36 22.2108 36 25.4558 36C26.1614 36 26.5141 36 26.8372 35.886C26.9044 35.8623 26.9702 35.835 27.0345 35.8043C27.3436 35.6564 27.593 35.407 28.0919 34.9081L32.8284 30.1716C33.4065 29.5935 33.6955 29.3045 33.8478 28.9369C34 28.5694 34 28.1606 34 27.3431Z" stroke="white" stroke-width="1.5" stroke-linecap="round" stroke-linejoin="round"/>
</g>
<defs>
<clipPath id="clip0_129_1661">
<rect width="52" height="52" fill="white"/>
</clipPath>
</defs>
</svg>
